<svg preserveAspectRatio="none" width="100%" height="100%" overflow="visible" style="display: block;" viewBox="0 0 717 396" fill="none" xmlns="http://www.w3.org/2000/svg">
<g id="Decorative frame">
<g id="Outer frame" filter="url(#filter0_n_0_22)">
<rect x="3.8147e-05" width="717" height="396" fill="var(--fill-0, #F9ECEC)" fill-opacity="0.32"/>
<rect x="0.500038" y="0.5" width="716" height="395" stroke="var(--stroke-0, #DBA0A0)"/>
</g>
<g id="Subtract">
<mask id="path-3-inside-1_0_22" fill="white">
<path d="M659.006 16.8502C659.266 38.0974 676.087 55.3044 697 55.8375V332.862C675.923 333.399 659 350.874 659 372.35C659 374.217 659.131 376.053 659.378 377.85H54.6222C54.8695 376.053 55.0001 374.217 55.0001 372.35C55.0001 351.557 39.1375 334.516 19.0001 332.964V56.735C39.1375 55.1835 55.0001 38.1431 55.0001 17.3502C55.0001 17.1833 54.9963 17.0167 54.9943 16.8502H659.006Z"/>
</mask>
<path d="M659.006 16.8502C659.266 38.0974 676.087 55.3044 697 55.8375V332.862C675.923 333.399 659 350.874 659 372.35C659 374.217 659.131 376.053 659.378 377.85H54.6222C54.8695 376.053 55.0001 374.217 55.0001 372.35C55.0001 351.557 39.1375 334.516 19.0001 332.964V56.735C39.1375 55.1835 55.0001 38.1431 55.0001 17.3502C55.0001 17.1833 54.9963 17.0167 54.9943 16.8502H659.006Z" fill="var(--fill-0, #F6F5F2)"/>
<path d="M659.006 16.8502L660.006 16.838L659.994 15.8502H659.006V16.8502ZM697 55.8375H698V54.8627L697.026 54.8378L697 55.8375ZM697 332.862L697.026 333.862L698 333.837V332.862H697ZM659.378 377.85V378.85H660.525L660.369 377.714L659.378 377.85ZM54.6222 377.85L53.6315 377.714L53.4752 378.85H54.6222V377.85ZM19.0001 332.964H18.0001V333.89L18.9233 333.962L19.0001 332.964ZM19.0001 56.735L18.9233 55.7379L18.0001 55.8091V56.735H19.0001ZM54.9943 16.8502V15.8502H53.982L53.9944 16.8625L54.9943 16.8502ZM659.006 16.8502L658.006 16.8625C658.273 38.6364 675.513 56.2901 696.975 56.8372L697 55.8375L697.026 54.8378C676.661 54.3187 660.26 37.5584 660.006 16.838L659.006 16.8502ZM697 55.8375H696V332.862H697H698V55.8375H697ZM697 332.862L696.975 331.862C675.345 332.414 658 350.341 658 372.35H659H660C660 351.406 676.501 334.385 697.026 333.862L697 332.862ZM659 372.35H658C658 374.263 658.134 376.145 658.387 377.986L659.378 377.85L660.369 377.714C660.128 375.96 660 374.17 660 372.35H659ZM659.378 377.85V376.85H54.6222V377.85V378.85H659.378V377.85ZM54.6222 377.85L55.6129 377.986C55.8662 376.145 56.0001 374.263 56.0001 372.35H55.0001H54.0001C54.0001 374.17 53.8728 375.96 53.6315 377.714L54.6222 377.85ZM55.0001 372.35H56.0001C56.0001 351.042 39.7419 333.56 19.077 331.967L19.0001 332.964L18.9233 333.962C38.5331 335.472 54.0001 352.073 54.0001 372.35H55.0001ZM19.0001 332.964H20.0001V56.735H19.0001H18.0001V332.964H19.0001ZM19.0001 56.735L19.077 57.732C39.7419 56.1399 56.0001 38.6589 56.0001 17.3502H55.0001H54.0001C54.0001 37.6273 38.5331 54.2271 18.9233 55.7379L19.0001 56.735ZM55.0001 17.3502H56.0001C56.0001 17.1757 55.9961 16.9896 55.9942 16.838L54.9943 16.8502L53.9944 16.8625C53.9966 17.0437 54.0001 17.1909 54.0001 17.3502H55.0001ZM54.9943 16.8502V17.8502H659.006V16.8502V15.8502H54.9943V16.8502Z" fill="var(--stroke-0, #DBA0A0)" mask="url(#path-3-inside-1_0_22)"/>
</g>
<path id="Vector" d="M37.7271 20.609C38.0063 21.6365 38.4745 22.6344 39.1059 23.5984C39.4892 24.3806 39.0189 24.4398 38.8449 24.3806L35.3089 22.6386C35.2144 22.6048 35.1156 22.5752 35.0211 22.5456C34.1449 22.6174 33.2902 22.7908 32.4999 23.1544C32.2164 23.6957 32.2507 24.8162 32.036 25.5181C31.4991 27.3658 29.9099 29.2136 27.9985 29.7802C27.9985 29.2094 27.9641 28.6428 27.9985 28.11C28.0672 26.9007 28.3593 25.091 29.2226 24.2031C29.7295 23.6449 30.4854 23.4377 31.2199 23.2559C31.28 23.2136 31.3359 23.1756 31.396 23.1375C32.0789 22.702 32.8478 22.3595 33.6467 22.1904C28.4538 21.1587 24.1028 23.8141 21.4698 28.3214C22.1227 28.4356 22.6682 28.9937 22.9388 29.666C23.1879 30.2833 23.3425 30.9303 23.5358 31.5645C23.5745 31.6914 23.6217 31.8267 23.6733 31.962C25.095 32.4609 26.5253 33.167 27.4831 34.2157C27.8739 34.647 28.1961 35.5856 27.6592 36.0465C27.1395 36.4863 26.5167 36.5032 25.8982 36.3721C26.216 36.926 26.4565 37.4926 26.5897 38.055C26.7916 38.926 27.3113 41.4672 25.7564 41.5729C23.699 41.7124 22.5651 39.8224 21.9165 37.6829C21.822 38.2917 21.6631 38.8752 21.4312 39.3911C21.0661 40.1987 19.5842 42.6596 18.33 41.5814C17.8919 41.205 17.5913 40.6976 17.4066 40.1099C17.3679 39.9957 17.3336 39.8731 17.3121 39.742C17.0243 38.4905 17.1875 36.9683 17.6557 35.6237C17.1059 36.203 16.5905 36.8118 15.9763 37.3361C14.997 38.1733 13.2961 38.6681 12.364 37.5137C11.4835 36.4228 12.3726 34.74 13.2102 33.9197C13.4507 33.6871 13.7127 33.4461 13.9962 33.2136C13.3347 33.0571 12.437 32.5878 12.7248 31.7971C13.0813 30.8119 14.3999 30.5286 15.332 30.4271C16.0751 30.3468 16.9685 30.3679 17.6772 30.6935C17.8662 30.4525 18.0938 30.2157 18.3171 29.9958C18.9872 29.3404 19.9536 28.2918 20.9973 28.313C21.0102 28.3087 21.0274 28.3045 21.0403 28.3045C23.4929 23.5392 28.0372 20.1566 33.7798 21.3701C35.4034 21.7126 36.9196 22.3172 38.3199 23.1164C37.7701 22.2876 37.362 21.3278 37.1344 20.3215C36.2796 19.1756 35.3776 18.1524 35.1414 16.6006C34.7806 14.1524 37.6627 12.3427 39.2519 10.8501C39.8661 12.3765 40.0809 14.2581 39.9735 15.8902C39.8661 17.5942 38.5303 18.4483 37.9161 19.9029C37.8216 20.1185 37.7572 20.3638 37.7271 20.609Z" fill="var(--fill-0, #DBA0A0)"/>
<path id="Vector_2" d="M37.7271 375.091C38.0063 374.064 38.4745 373.066 39.1059 372.102C39.4892 371.32 39.0189 371.26 38.8449 371.32L35.3089 373.062C35.2144 373.095 35.1156 373.125 35.0211 373.155C34.1449 373.083 33.2902 372.909 32.4999 372.546C32.2164 372.005 32.2507 370.884 32.036 370.182C31.4991 368.334 29.9099 366.487 27.9985 365.92C27.9985 366.491 27.9641 367.057 27.9985 367.59C28.0672 368.799 28.3593 370.609 29.2226 371.497C29.7295 372.055 30.4854 372.262 31.2199 372.444C31.28 372.487 31.3359 372.525 31.396 372.563C32.0789 372.998 32.8478 373.341 33.6467 373.51C28.4538 374.542 24.1028 371.886 21.4698 367.379C22.1227 367.265 22.6682 366.706 22.9388 366.034C23.1879 365.417 23.3425 364.77 23.5358 364.136C23.5745 364.009 23.6217 363.874 23.6733 363.738C25.095 363.239 26.5253 362.533 27.4831 361.485C27.8739 361.053 28.1961 360.115 27.6592 359.654C27.1395 359.214 26.5167 359.197 25.8982 359.328C26.216 358.774 26.4565 358.208 26.5897 357.645C26.7916 356.774 27.3113 354.233 25.7564 354.127C23.699 353.988 22.5651 355.878 21.9165 358.017C21.822 357.408 21.6631 356.825 21.4312 356.309C21.0661 355.501 19.5842 353.041 18.33 354.119C17.8919 354.495 17.5913 355.003 17.4066 355.59C17.3679 355.704 17.3335 355.827 17.3121 355.958C17.0243 357.21 17.1875 358.732 17.6557 360.077C17.1059 359.497 16.5905 358.888 15.9763 358.364C14.997 357.527 13.2961 357.032 12.364 358.186C11.4835 359.277 12.3726 360.96 13.2102 361.781C13.4507 362.013 13.7127 362.254 13.9962 362.487C13.3347 362.643 12.437 363.112 12.7248 363.903C13.0813 364.888 14.3999 365.172 15.332 365.273C16.0751 365.353 16.9685 365.332 17.6772 365.007C17.8662 365.248 18.0938 365.484 18.3171 365.704C18.9872 366.36 19.9536 367.408 20.9973 367.387C21.0102 367.391 21.0274 367.396 21.0403 367.396C23.4929 372.161 28.0372 375.544 33.7798 374.33C35.4034 373.988 36.9196 373.383 38.3199 372.584C37.7701 373.413 37.362 374.372 37.1344 375.379C36.2796 376.525 35.3776 377.548 35.1414 379.1C34.7806 381.548 37.6627 383.358 39.2519 384.85C39.8661 383.324 40.0809 381.442 39.9735 379.81C39.8661 378.106 38.5303 377.252 37.9161 375.797C37.8216 375.582 37.7572 375.336 37.7271 375.091Z" fill="var(--fill-0, #DBA0A0)"/>
<path id="Vector_3" d="M679.273 20.609C678.994 21.6365 678.526 22.6344 677.894 23.5984C677.511 24.3806 677.981 24.4398 678.155 24.3806L681.691 22.6386C681.786 22.6048 681.884 22.5752 681.979 22.5456C682.855 22.6174 683.71 22.7908 684.5 23.1544C684.784 23.6957 684.749 24.8162 684.964 25.5181C685.501 27.3658 687.09 29.2136 689.001 29.7802C689.001 29.2094 689.036 28.6428 689.001 28.11C688.933 26.9007 688.641 25.091 687.777 24.2031C687.271 23.6449 686.515 23.4377 685.78 23.2559C685.72 23.2136 685.664 23.1756 685.604 23.1375C684.921 22.702 684.152 22.3595 683.353 22.1904C688.546 21.1587 692.897 23.8141 695.53 28.3214C694.877 28.4356 694.332 28.9937 694.061 29.666C693.812 30.2833 693.657 30.9303 693.464 31.5645C693.426 31.6914 693.378 31.8267 693.327 31.962C691.905 32.4609 690.475 33.167 689.517 34.2157C689.126 34.647 688.804 35.5856 689.341 36.0465C689.861 36.4863 690.483 36.5032 691.102 36.3721C690.784 36.926 690.543 37.4926 690.41 38.055C690.208 38.926 689.689 41.4672 691.244 41.5729C693.301 41.7124 694.435 39.8224 695.083 37.6829C695.178 38.2917 695.337 38.8752 695.569 39.3911C695.934 40.1987 697.416 42.6596 698.67 41.5814C699.108 41.205 699.409 40.6976 699.593 40.1099C699.632 39.9957 699.666 39.8731 699.688 39.742C699.976 38.4905 699.812 36.9683 699.344 35.6237C699.894 36.203 700.41 36.8118 701.024 37.3361C702.003 38.1733 703.704 38.6681 704.636 37.5137C705.516 36.4228 704.627 34.74 703.79 33.9197C703.549 33.6871 703.287 33.4461 703.004 33.2136C703.665 33.0571 704.563 32.5878 704.275 31.7971C703.919 30.8119 702.6 30.5286 701.668 30.4271C700.925 30.3468 700.032 30.3679 699.323 30.6935C699.134 30.4525 698.906 30.2157 698.683 29.9958C698.013 29.3404 697.046 28.2918 696.003 28.313C695.99 28.3087 695.973 28.3045 695.96 28.3045C693.507 23.5392 688.963 20.1566 683.22 21.3701C681.597 21.7126 680.08 22.3172 678.68 23.1164C679.23 22.2876 679.638 21.3278 679.866 20.3215C680.72 19.1756 681.622 18.1524 681.859 16.6006C682.219 14.1524 679.337 12.3427 677.748 10.8501C677.134 12.3765 676.919 14.2581 677.026 15.8902C677.134 17.5942 678.47 18.4483 679.084 19.9029C679.178 20.1185 679.243 20.3638 679.273 20.609Z" fill="var(--fill-0, #DBA0A0)"/>
<path id="Vector_4" d="M679.273 375.091C678.994 374.064 678.526 373.066 677.894 372.102C677.511 371.32 677.981 371.26 678.155 371.32L681.691 373.062C681.786 373.095 681.884 373.125 681.979 373.155C682.855 373.083 683.71 372.909 684.5 372.546C684.784 372.005 684.749 370.884 684.964 370.182C685.501 368.334 687.09 366.487 689.001 365.92C689.001 366.491 689.036 367.057 689.001 367.59C688.933 368.799 688.641 370.609 687.777 371.497C687.271 372.055 686.515 372.262 685.78 372.444C685.72 372.487 685.664 372.525 685.604 372.563C684.921 372.998 684.152 373.341 683.353 373.51C688.546 374.542 692.897 371.886 695.53 367.379C694.877 367.265 694.332 366.706 694.061 366.034C693.812 365.417 693.657 364.77 693.464 364.136C693.426 364.009 693.378 363.874 693.327 363.738C691.905 363.239 690.475 362.533 689.517 361.485C689.126 361.053 688.804 360.115 689.341 359.654C689.861 359.214 690.483 359.197 691.102 359.328C690.784 358.774 690.543 358.208 690.41 357.645C690.208 356.774 689.689 354.233 691.244 354.127C693.301 353.988 694.435 355.878 695.083 358.017C695.178 357.408 695.337 356.825 695.569 356.309C695.934 355.501 697.416 353.041 698.67 354.119C699.108 354.495 699.409 355.003 699.593 355.59C699.632 355.704 699.666 355.827 699.688 355.958C699.976 357.21 699.812 358.732 699.344 360.077C699.894 359.497 700.41 358.888 701.024 358.364C702.003 357.527 703.704 357.032 704.636 358.186C705.516 359.277 704.627 360.96 703.79 361.781C703.549 362.013 703.287 362.254 703.004 362.487C703.665 362.643 704.563 363.112 704.275 363.903C703.919 364.888 702.6 365.172 701.668 365.273C700.925 365.353 700.032 365.332 699.323 365.007C699.134 365.248 698.906 365.484 698.683 365.704C698.013 366.36 697.046 367.408 696.003 367.387C695.99 367.391 695.973 367.396 695.96 367.396C693.507 372.161 688.963 375.544 683.22 374.33C681.597 373.988 680.08 373.383 678.68 372.584C679.23 373.413 679.638 374.372 679.866 375.379C680.72 376.525 681.622 377.548 681.859 379.1C682.219 381.548 679.337 383.358 677.748 384.85C677.134 383.324 676.919 381.442 677.026 379.81C677.134 378.106 678.47 377.252 679.084 375.797C679.178 375.582 679.243 375.336 679.273 375.091Z" fill="var(--fill-0, #DBA0A0)"/>
</g>
<defs>
<filter id="filter0_n_0_22" x="3.8147e-05" y="0" width="717" height="396" filterUnits="userSpaceOnUse" color-interpolation-filters="sRGB">
<feFlood flood-opacity="0" result="BackgroundImageFix"/>
<feBlend mode="normal" in="SourceGraphic" in2="BackgroundImageFix" result="shape"/>
<feTurbulence type="fractalNoise" baseFrequency="2.5 2.5" stitchTiles="stitch" numOctaves="3" result="noise" seed="7762" />
<feColorMatrix in="noise" type="luminanceToAlpha" result="alphaNoise" />
<feComponentTransfer in="alphaNoise" result="coloredNoise1">
<feFuncA type="discrete" tableValues="1 1 1 1 1 1 1 1 1 1 1 1 1 1 1 1 1 1 1 1 1 1 1 1 1 1 1 1 1 1 1 1 1 1 1 1 1 1 1 1 1 1 1 1 1 1 1 1 1 1 1 0 0 0 0 0 0 0 0 0 0 0 0 0 0 0 0 0 0 0 0 0 0 0 0 0 0 0 0 0 0 0 0 0 0 0 0 0 0 0 0 0 0 0 0 0 0 0 0 0 "/>
</feComponentTransfer>
<feComposite operator="in" in2="shape" in="coloredNoise1" result="noise1Clipped" />
<feFlood flood-color="rgba(230, 182, 182, 0.5)" result="color1Flood" />
<feComposite operator="in" in2="noise1Clipped" in="color1Flood" result="color1" />
<feMerge result="effect1_noise_0_22">
<feMergeNode in="shape" />
<feMergeNode in="color1" />
</feMerge>
</filter>
</defs>
</svg>
