<svg preserveAspectRatio="none" width="100%" height="100%" overflow="visible" style="display: block;" viewBox="0 0 35.2611 63.9992" fill="none" xmlns="http://www.w3.org/2000/svg">
<path id="Vector" d="M27.2221 18.1869C27.8606 18.2721 28.5252 18.5607 29.1302 18.582C30.3449 18.6111 31.6753 18.3505 32.7166 17.743C34.4809 16.702 36.4472 13.6656 34.3652 11.9884C32.2828 10.3108 28.6388 11.3812 27.2797 13.492C26.399 14.891 26.3526 16.4978 26.1452 18.0852C24.7317 19.0737 23.3413 20.096 21.9879 21.119C19.9986 22.623 17.914 24.4236 16.7307 26.6824C17.2879 24.0163 18.0557 21.3962 19.0374 18.8422C20.4634 15.1333 22.3438 11.6336 24.1246 8.0893C24.6944 7.87398 25.2638 7.74063 25.8335 7.59217C27.193 7.30316 28.3207 6.92717 29.1302 5.68343C30.1716 4.06442 30.0846 1.31707 27.8868 0.738338C25.4284 0.0733361 23.5775 2.58956 23.4039 4.75854C23.3327 5.80062 23.6476 6.72803 23.8284 7.69678C22.9739 9.23383 22.1576 10.7791 21.3905 12.3392C21.4196 11.6174 21.4419 10.8927 21.402 10.1763C21.7586 9.68998 22.1619 9.2306 22.4207 8.6914C23.3464 6.89806 22.8834 3.05182 20.2517 3.31243C15.8687 3.73947 18.2361 9.3165 20.793 10.6512C20.8196 11.5297 20.8448 12.4086 20.9318 13.2896C20.2851 14.6455 19.678 16.014 19.1165 17.3979C19.0112 13.589 17.4392 9.7403 15.3111 6.5012C15.3255 5.83548 15.5085 5.19384 15.5085 4.52705C15.4794 3.34118 15.3349 1.95296 14.4675 1.08558C13.5422 0.160327 11.5177 -0.505038 10.4188 0.507203C9.14624 1.66431 9.63799 4.03531 10.8818 5.01915C11.9645 5.85813 13.3772 5.78552 14.5735 6.31824C15.3888 7.75249 16.1483 9.21586 16.7986 10.7364C16.4273 10.4078 16.0193 10.1037 15.6055 9.82119C15.4538 9.42327 15.3744 8.99084 15.1904 8.60478C14.4962 7.21654 10.7656 5.42319 10.1873 7.76615C9.56717 10.3305 13.7791 11.3557 15.5735 10.4977C15.7292 10.6242 15.8888 10.745 16.0416 10.8751C16.4977 11.2623 16.9068 11.7091 17.3371 12.1275C18.0312 14.1272 18.4148 16.1879 18.7631 18.2843C17.0168 22.7693 15.7637 27.4236 15.2601 32.3849C14.9294 35.6412 14.8837 38.9907 15.0998 42.3459C14.2913 39.5601 13.0605 36.8749 11.7909 34.3005C11.7646 34.2473 11.7366 34.1944 11.71 34.1412C11.6575 32.6466 11.2319 31.1164 11.1043 29.6232C11.0716 29.2428 11.046 28.8629 11.0216 28.4833C11.3174 27.6756 12.0026 27.0153 12.5012 26.333C13.1953 25.4078 13.9182 24.2219 13.3398 23.036C12.7614 21.9081 11.3153 21.3875 10.1294 21.7057C8.24972 22.2265 7.41072 24.0486 8.27883 25.7838C8.80977 26.8452 9.76057 27.5983 10.4162 28.5631C10.4511 29.1242 10.4907 29.6839 10.5388 30.2439C10.5942 30.8928 10.6499 31.5944 10.7585 32.2853C9.57975 30.0459 8.31406 27.856 7.01746 25.6835C6.87547 25.0411 6.91717 24.3646 6.97756 23.7018C7.26657 20.8387 7.49807 16.2113 3.04424 17.4259C-0.281567 18.3515 -0.975704 21.793 1.42483 24.1065C2.8149 25.415 5.00047 26.6191 6.9905 26.8021C8.19256 29.0628 9.44171 31.2982 10.6211 33.5736C11.4073 35.0902 12.1183 36.6215 12.7636 38.1733C12.1996 37.8059 11.5263 37.5255 10.8127 37.3009C10.4849 36.7031 10.3152 35.9986 9.95576 35.4141C8.74111 33.5344 4.5479 32.2041 3.44865 34.8357C2.66788 36.7157 3.96952 38.7398 5.96493 38.9716C6.92148 39.0842 7.87299 38.8394 8.76591 38.5148C9.17104 38.367 9.56969 38.1905 9.97661 38.0629C10.1729 38.0015 10.3767 37.9012 10.5834 37.821C11.7078 38.2836 12.5651 38.8836 13.3901 39.7413C14.1817 41.8035 14.8618 43.9085 15.4495 46.0703C16.0006 50.5326 17.0218 54.9425 18.4885 59.0975C17.5025 57.7337 16.341 56.4803 15.2231 55.3544C14.5552 54.6826 13.8485 54.0557 13.1141 53.4651C12.4393 52.7606 12.0612 51.7638 11.7474 50.7501C11.8926 50.1627 12.3171 49.6688 12.6169 49.1509C13.3689 47.8787 13.9761 46.2881 13.7162 44.8132C13.4268 43.0781 11.8653 42.4128 10.4482 43.4829C7.71303 45.5627 9.44064 48.5401 11.2347 50.4251C11.4828 51.2652 11.7793 52.0963 12.2528 52.7958C11.444 52.1973 10.5999 51.6484 9.73181 51.1383C9.46113 50.6189 9.27025 50.0459 9.00208 49.5279C8.1922 47.8503 4.5195 44.9002 3.10247 47.4452C2.03233 49.3543 3.88324 51.4363 5.64752 51.9572C7.06454 52.3928 8.58366 52.1369 10.0366 51.9848C11.5809 53.0054 13.0418 54.1459 14.3952 55.436C14.6465 55.6754 14.8891 55.9249 15.13 56.1758C14.2981 55.761 13.3448 55.4896 12.3714 55.303C10.6603 54.0348 7.64904 52.5071 5.90742 53.6344C4.49039 54.5597 5.53141 56.2369 6.54368 57.0176C7.96035 58.1456 9.72498 58.2901 11.2865 57.4803C11.9709 57.1255 12.5669 56.637 13.269 56.3074C14.3168 56.6557 15.3514 57.0766 16.4028 57.591C16.9 58.1812 17.3806 58.7866 17.8407 59.4034C18.9173 60.8473 19.6488 62.4383 20.5989 63.9509C20.6604 64.0491 20.8067 63.9847 20.7823 63.8736C20.5443 62.7837 20.1068 61.7399 19.5478 60.7445C19.2286 59.591 18.9198 58.4404 18.6244 57.2912C18.4648 55.0521 18.8228 52.95 19.5259 50.9528C20.7772 50.1005 22.1105 49.6415 23.4704 49.2709C23.9948 49.5635 24.4176 50.038 24.9079 50.3946C26.3828 51.3781 28.2916 51.5513 29.9689 50.8863C31.5595 50.2501 33.4395 48.2547 32.1958 46.4617C30.0814 43.4131 25.3094 46.3359 23.4215 48.4952C22.0418 48.8798 20.7409 49.4262 19.7811 50.2702C21.2075 46.6569 23.7069 43.3772 26.18 40.2226C26.697 40.1672 27.2301 40.1791 27.7419 40.1277C29.3326 40.0123 30.9232 39.55 32.0221 38.3354C33.3525 36.918 34.3069 33.8526 32.1958 32.6376C29.6507 31.1918 26.0355 33.7077 25.1681 36.1082C24.7666 37.2861 24.6893 39.132 25.6207 40.1334C24.1077 42.0314 22.6731 43.9894 21.3959 46.0613C21.2614 46.2798 21.1284 46.5006 20.9979 46.7245C21.3948 45.218 21.5188 43.6087 21.806 42.0997C21.9477 41.3534 22.1055 40.6079 22.2536 39.8606C23.0361 39.3052 23.8345 38.7161 24.3586 37.9303C25.4579 36.3106 26.1229 31.5678 23.4909 31.1052C21.2352 30.7005 19.6158 32.8982 19.4709 34.9227C19.3555 36.8897 20.2229 38.6532 21.5242 40.0705L21.5796 40.1047C21.4688 40.7172 21.3552 41.3301 21.2373 41.9433C20.8286 44.076 20.8157 46.3941 20.0719 48.4388C18.9727 50.6505 18.1797 53.051 18.1722 55.4849C16.377 48.1217 15.232 40.7704 15.8205 33.028C15.9528 31.2885 16.1814 29.5646 16.4956 27.8582C17.2487 26.5145 18.1441 25.338 19.156 24.2715C20.8825 23.6755 22.484 23.5425 24.1145 23.5745C24.5391 24.0914 24.8392 24.9415 25.1394 25.3211C26.3828 26.9121 28.5809 27.9819 30.5764 27.2008C32.4851 26.4779 33.295 24.1356 32.0225 22.458C29.8154 19.5611 25.8989 21.6906 23.2834 22.8718C22.1069 22.9322 20.9458 23.1554 19.8627 23.5641C20.8362 22.6288 21.8963 21.7671 23.0336 20.9418C24.3557 19.9806 25.8217 19.1201 27.2221 18.1869Z" fill="var(--fill-0, #E7DED4)"/>
</svg>
