<svg preserveAspectRatio="none" width="100%" height="100%" overflow="visible" style="display: block;" viewBox="0 0 1175.82 399" fill="none" xmlns="http://www.w3.org/2000/svg">
<g id="Union" filter="url(#filter0_n_0_85)">
<path d="M1089.49 0.5C1086 16.0005 1103.86 34.1833 1121.65 35.4824V95.5684C1133.25 92.3207 1156.17 95.569 1154.99 134.543C1153.8 173.517 1167.83 194.087 1175 199.5C1167.83 204.913 1153.8 225.483 1154.99 264.457C1156.17 303.431 1133.25 306.679 1121.65 303.432V363.518C1103.86 364.817 1086 383 1089.49 398.5H86.3361C89.8287 383 71.9623 364.817 54.1789 363.518V303.432C42.5702 306.679 19.6496 303.431 20.8351 264.457C22.0206 225.483 7.9921 204.913 0.829284 199.5C7.9921 194.087 22.0206 173.517 20.8351 134.543C19.6496 95.569 42.5702 92.3207 54.1789 95.5684V35.4824C71.9623 34.1833 89.8287 16.0005 86.3361 0.5H1089.49Z" fill="var(--fill-0, #F9ECEC)" fill-opacity="0.32"/>
<path d="M1089.49 0.5L1089.98 0.609904L1090.11 0H1089.49V0.5ZM1121.65 35.4824H1122.15V35.0176L1121.68 34.9837L1121.65 35.4824ZM1121.65 95.5684H1121.15V96.2274L1121.78 96.0499L1121.65 95.5684ZM1154.99 134.543L1154.49 134.528V134.528L1154.99 134.543ZM1175 199.5L1175.3 199.899L1175.82 199.5L1175.3 199.101L1175 199.5ZM1154.99 264.457L1154.49 264.472V264.472L1154.99 264.457ZM1121.65 303.432L1121.78 302.95L1121.15 302.773V303.432H1121.65ZM1121.65 363.518L1121.68 364.016L1122.15 363.982V363.518H1121.65ZM1089.49 398.5V399H1090.11L1089.98 398.39L1089.49 398.5ZM86.3361 398.5L85.8483 398.39L85.7109 399H86.3361V398.5ZM54.1789 363.518H53.6789V363.982L54.1425 364.016L54.1789 363.518ZM54.1789 303.432H54.6789V302.773L54.0442 302.95L54.1789 303.432ZM20.8351 264.457L21.3349 264.472V264.472L20.8351 264.457ZM0.829284 199.5L0.527819 199.101L0 199.5L0.527819 199.899L0.829284 199.5ZM20.8351 134.543L21.3349 134.528V134.528L20.8351 134.543ZM54.1789 95.5684L54.0442 96.0499L54.6789 96.2274V95.5684H54.1789ZM54.1789 35.4824L54.1425 34.9837L53.6789 35.0176V35.4824H54.1789ZM86.3361 0.5V0H85.7109L85.8483 0.609904L86.3361 0.5ZM1089.49 0.5L1089 0.390096C1087.2 8.36386 1090.91 16.9473 1097.22 23.6593C1103.55 30.3786 1112.57 35.3208 1121.61 35.9811L1121.65 35.4824L1121.68 34.9837C1112.94 34.3449 1104.14 29.5462 1097.95 22.9741C1091.76 16.3948 1088.28 8.13663 1089.98 0.609904L1089.49 0.5ZM1121.65 35.4824H1121.15V95.5684H1121.65H1122.15V35.4824H1121.65ZM1121.65 95.5684L1121.78 96.0499C1127.48 94.4541 1135.94 94.4649 1142.82 99.6225C1149.67 104.767 1155.08 115.132 1154.49 134.528L1154.99 134.543L1155.49 134.558C1156.08 114.98 1150.63 104.234 1143.42 98.8226C1136.22 93.4245 1127.42 93.4349 1121.51 95.0868L1121.65 95.5684ZM1154.99 134.543L1154.49 134.528C1153.3 173.609 1167.36 194.359 1174.69 199.899L1175 199.5L1175.3 199.101C1168.3 193.814 1154.31 173.424 1155.49 134.558L1154.99 134.543ZM1175 199.5L1174.69 199.101C1167.36 204.641 1153.3 225.391 1154.49 264.472L1154.99 264.457L1155.49 264.442C1154.31 225.576 1168.3 205.186 1175.3 199.899L1175 199.5ZM1154.99 264.457L1154.49 264.472C1155.08 283.868 1149.67 294.233 1142.82 299.378C1135.94 304.535 1127.48 304.546 1121.78 302.95L1121.65 303.432L1121.51 303.913C1127.42 305.565 1136.22 305.576 1143.42 300.177C1150.63 294.766 1156.08 284.02 1155.49 264.442L1154.99 264.457ZM1121.65 303.432H1121.15V363.518H1121.65H1122.15V303.432H1121.65ZM1121.65 363.518L1121.61 363.019C1112.57 363.679 1103.55 368.621 1097.22 375.341C1090.91 382.053 1087.2 390.636 1089 398.61L1089.49 398.5L1089.98 398.39C1088.28 390.863 1091.76 382.605 1097.95 376.026C1104.14 369.454 1112.94 364.655 1121.68 364.016L1121.65 363.518ZM1089.49 398.5V398H86.3361V398.5V399H1089.49V398.5ZM86.3361 398.5L86.8239 398.61C88.6205 390.636 84.9155 382.053 78.6001 375.341C72.278 368.621 63.2542 363.679 54.2153 363.019L54.1789 363.518L54.1425 364.016C62.887 364.655 71.6881 369.454 77.8718 376.026C84.0623 382.605 87.5443 390.863 85.8483 398.39L86.3361 398.5ZM54.1789 363.518H54.6789V303.432H54.1789H53.6789V363.518H54.1789ZM54.1789 303.432L54.0442 302.95C48.3403 304.546 39.8821 304.535 33.0093 299.378C26.1545 294.233 20.7449 283.868 21.3349 264.472L20.8351 264.457L20.3354 264.442C19.7398 284.02 25.1978 294.766 32.4091 300.177C39.6024 305.576 48.4088 305.565 54.3136 303.913L54.1789 303.432ZM20.8351 264.457L21.3349 264.472C22.5237 225.391 8.46082 204.641 1.13075 199.101L0.829284 199.5L0.527819 199.899C7.52338 205.186 21.5176 225.576 20.3354 264.442L20.8351 264.457ZM0.829284 199.5L1.13075 199.899C8.46082 194.359 22.5237 173.609 21.3349 134.528L20.8351 134.543L20.3354 134.558C21.5176 173.424 7.52338 193.814 0.527819 199.101L0.829284 199.5ZM20.8351 134.543L21.3349 134.528C20.7449 115.132 26.1545 104.767 33.0093 99.6225C39.8821 94.4649 48.3403 94.4541 54.0442 96.0499L54.1789 95.5684L54.3136 95.0868C48.4088 93.4349 39.6024 93.4245 32.4091 98.8226C25.1978 104.234 19.7398 114.98 20.3354 134.558L20.8351 134.543ZM54.1789 95.5684H54.6789V35.4824H54.1789H53.6789V95.5684H54.1789ZM54.1789 35.4824L54.2153 35.9811C63.2542 35.3208 72.278 30.3786 78.6001 23.6593C84.9155 16.9473 88.6205 8.36386 86.8239 0.390096L86.3361 0.5L85.8483 0.609904C87.5443 8.13663 84.0623 16.3948 77.8718 22.9741C71.6881 29.5462 62.887 34.3449 54.1425 34.9837L54.1789 35.4824ZM86.3361 0.5V1H1089.49V0.5V0H86.3361V0.5Z" fill="var(--stroke-0, #E7C5C5)"/>
</g>
<defs>
<filter id="filter0_n_0_85" x="0" y="0" width="1175.82" height="399" filterUnits="userSpaceOnUse" color-interpolation-filters="sRGB">
<feFlood flood-opacity="0" result="BackgroundImageFix"/>
<feBlend mode="normal" in="SourceGraphic" in2="BackgroundImageFix" result="shape"/>
<feTurbulence type="fractalNoise" baseFrequency="2.5 2.5" stitchTiles="stitch" numOctaves="3" result="noise" seed="7762" />
<feColorMatrix in="noise" type="luminanceToAlpha" result="alphaNoise" />
<feComponentTransfer in="alphaNoise" result="coloredNoise1">
<feFuncA type="discrete" tableValues="1 1 1 1 1 1 1 1 1 1 1 1 1 1 1 1 1 1 1 1 1 1 1 1 1 1 1 1 1 1 1 1 1 1 1 1 1 1 1 1 1 1 1 1 1 1 1 1 1 1 1 0 0 0 0 0 0 0 0 0 0 0 0 0 0 0 0 0 0 0 0 0 0 0 0 0 0 0 0 0 0 0 0 0 0 0 0 0 0 0 0 0 0 0 0 0 0 0 0 0 "/>
</feComponentTransfer>
<feComposite operator="in" in2="shape" in="coloredNoise1" result="noise1Clipped" />
<feFlood flood-color="rgba(230, 182, 182, 0.5)" result="color1Flood" />
<feComposite operator="in" in2="noise1Clipped" in="color1Flood" result="color1" />
<feMerge result="effect1_noise_0_85">
<feMergeNode in="shape" />
<feMergeNode in="color1" />
</feMerge>
</filter>
</defs>
</svg>
