<svg preserveAspectRatio="none" width="100%" height="100%" overflow="visible" style="display: block;" viewBox="0 0 25.3018 56.0531" fill="none" xmlns="http://www.w3.org/2000/svg">
<g id="Group">
<path id="Vector" d="M0.475302 56.0531L0.227037 54.531C0.0674384 53.5752 -3.39054 30.6018 23.4044 2.0354L25.3018 0L25.1068 2.77876C22.5 40.6903 2.60329 54.6018 1.7521 55.1858L0.475302 56.0531ZM22.9078 5.52213C2.88702 27.9292 1.82303 46.7434 2.05356 52.4425C6.48687 48.6195 20.1237 34.6726 22.9078 5.52213Z" fill="var(--fill-0, #E7DED4)"/>
<path id="Vector_2" d="M1.50383 54C1.50383 54 1.36196 54 1.29103 53.9469C1.04276 53.823 0.936365 53.5221 1.0605 53.2921C1.14916 53.1151 9.48378 36.1593 12.392 25.5752C12.463 25.3097 12.729 25.1681 12.995 25.2212C13.261 25.292 13.4206 25.5575 13.3496 25.823C10.4059 36.4956 2.03583 53.5398 1.94716 53.7168C1.85849 53.8938 1.68116 54 1.50383 54Z" fill="var(--fill-0, #E7DED4)"/>
</g>
</svg>
